<svg width="318" height="65" viewBox="0 0 318 65" fill="none" xmlns="http://www.w3.org/2000/svg">
<mask id="path-1-outside-1_1_1115" maskUnits="userSpaceOnUse" x="-0.169922" y="0.73938" width="85" height="65" fill="black">
<rect fill="white" x="-0.169922" y="0.73938" width="85" height="65"/>
<path d="M26.1859 17.6192C26.0478 17.8847 25.9846 18.1829 26.0031 18.4816C26.0216 18.7803 26.1211 19.0684 26.291 19.3148L41.064 40.6535C41.215 40.8716 41.4167 41.0498 41.6517 41.1729C41.8866 41.2959 42.148 41.3602 42.4132 41.3602C42.6785 41.3602 42.9398 41.2959 43.1748 41.1729C43.4098 41.0498 43.6114 40.8716 43.7625 40.6535L58.5355 19.3148C58.7071 19.0688 58.8078 18.7804 58.8268 18.4811C58.8458 18.1818 58.7822 17.883 58.643 17.6173C58.5038 17.3516 58.2944 17.1293 58.0375 16.9745C57.7806 16.8197 57.4861 16.7383 57.1862 16.7394L27.6402 16.7394C27.3406 16.7393 27.0467 16.8213 26.7903 16.9764C26.534 17.1315 26.325 17.3538 26.1859 17.6192ZM54.0527 20.0223L42.4132 36.8356L30.7738 20.0223H54.0527Z"/>
</mask>
<path d="M26.1859 17.6192L12.0126 10.1952L12.0019 10.2156L11.9913 10.236L26.1859 17.6192ZM26.291 19.3148L13.1163 28.3937L13.1261 28.408L13.1359 28.4222L26.291 19.3148ZM41.064 40.6535L27.9089 49.7609L27.912 49.7654L41.064 40.6535ZM43.7625 40.6535L56.9145 49.7654L56.9176 49.7609L43.7625 40.6535ZM58.5355 19.3148L45.4131 10.1604L45.3967 10.1839L45.3804 10.2075L58.5355 19.3148ZM57.1862 16.7394V32.7394H57.2142L57.2422 32.7393L57.1862 16.7394ZM27.6402 16.7394L27.6376 32.7394H27.6402V16.7394ZM54.0527 20.0223L67.2079 29.1294L84.589 4.02227L54.0527 4.02227V20.0223ZM42.4132 36.8356L29.258 45.9426L42.4132 64.9455L55.5685 45.9426L42.4132 36.8356ZM30.7738 20.0223V4.02227L0.237419 4.02227L17.6185 29.1294L30.7738 20.0223ZM11.9913 10.236C10.5123 13.0794 9.83555 16.2719 10.0337 19.471L41.9725 17.4922C42.1337 20.0938 41.5833 22.6901 40.3806 25.0024L11.9913 10.236ZM10.0337 19.471C10.2319 22.6699 11.2975 25.7545 13.1163 28.3937L39.4657 10.2359C40.9447 12.3822 41.8113 14.8907 41.9725 17.4922L10.0337 19.471ZM13.1359 28.4222L27.9089 49.7609L54.219 31.5462L39.4461 10.2075L13.1359 28.4222ZM27.912 49.7654C29.5355 52.1088 31.7029 54.0239 34.2283 55.3466L49.075 26.9991C51.1305 28.0757 52.8945 29.6343 54.216 31.5417L27.912 49.7654ZM34.2283 55.3466C36.7539 56.6693 39.5623 57.3602 42.4132 57.3602V25.3602C44.7336 25.3602 47.0194 25.9226 49.075 26.9991L34.2283 55.3466ZM42.4132 57.3602C45.2641 57.3602 48.0725 56.6693 50.5981 55.3466L35.7515 26.9991C37.807 25.9225 40.0929 25.3602 42.4132 25.3602V57.3602ZM50.5981 55.3466C53.1236 54.0239 55.2909 52.1088 56.9145 49.7654L30.6105 31.5417C31.9319 29.6344 33.6959 28.0757 35.7515 26.9991L50.5981 55.3466ZM56.9176 49.7609L71.6905 28.4222L45.3804 10.2075L30.6074 31.5462L56.9176 49.7609ZM71.6578 28.4692C73.5055 25.8207 74.5906 22.7157 74.7948 19.4928L42.8588 17.4695C43.0251 14.8452 43.9086 12.317 45.4131 10.1604L71.6578 28.4692ZM74.7948 19.4928C74.999 16.2699 74.3144 13.0528 72.8158 10.1922L44.4702 25.0424C43.2499 22.7132 42.6926 20.0937 42.8588 17.4695L74.7948 19.4928ZM72.8158 10.1922C71.3171 7.33161 69.0619 4.9374 66.296 3.27055L49.779 30.6784C47.5268 29.3212 45.6905 27.3717 44.4702 25.0424L72.8158 10.1922ZM66.296 3.27055C63.53 1.6037 60.3596 0.728189 57.1302 0.739488L57.2422 32.7393C54.6127 32.7485 52.0311 32.0356 49.779 30.6784L66.296 3.27055ZM57.1862 0.73939L27.6402 0.73939V32.7394H57.1862V0.73939ZM27.6429 0.73939C24.4227 0.738859 21.2637 1.61975 18.5085 3.28659L35.0722 30.6662C32.8297 32.0229 30.2586 32.7398 27.6376 32.7394L27.6429 0.73939ZM18.5085 3.28659C15.7532 4.95344 13.5067 7.34264 12.0126 10.1952L40.3593 25.0432C39.1432 27.3649 37.3148 29.3095 35.0722 30.6662L18.5085 3.28659ZM40.8974 10.9152L29.258 27.7285L55.5685 45.9426L67.2079 29.1294L40.8974 10.9152ZM55.5685 27.7285L43.929 10.9152L17.6185 29.1294L29.258 45.9426L55.5685 27.7285ZM30.7738 36.0223H54.0527V4.02227L30.7738 4.02227V36.0223Z" fill="#FF6464" mask="url(#path-1-outside-1_1_1115)"/>
<path d="M92.8301 42.0498C92.4034 42.0498 92.0834 41.8765 91.8701 41.5298C91.6834 41.1831 91.5901 40.7298 91.5901 40.1698C91.5901 39.3965 91.7101 38.4898 91.9501 37.4498C92.2167 36.4098 92.5367 35.3298 92.9101 34.2098C93.3101 33.0898 93.7101 32.0231 94.1101 31.0098C94.5101 29.9698 94.8567 29.0898 95.1501 28.3698H92.9501C92.7367 28.3698 92.6301 28.2898 92.6301 28.1298C92.6301 27.9698 92.7501 27.7565 92.9901 27.4898C93.2301 27.1965 93.5101 26.9431 93.8301 26.7298C94.1501 26.5165 94.4167 26.4098 94.6301 26.4098H95.9901C96.6567 24.8365 97.2834 23.3698 97.8701 22.0098C98.4567 20.6231 99.1901 19.1565 100.07 17.6098C100.283 17.2365 100.483 16.8898 100.67 16.5698C100.857 16.2231 101.07 15.9165 101.31 15.6498C99.8701 15.8365 98.3901 16.1165 96.8701 16.4898C95.3767 16.8631 94.0434 17.3431 92.8701 17.9298C91.6967 18.5165 90.8701 19.2098 90.3901 20.0098C90.3634 20.0898 90.3101 20.1298 90.2301 20.1298C90.1767 20.1298 90.1367 20.0765 90.1101 19.9698C90.0567 19.8631 90.0434 19.7431 90.0701 19.6098C90.3367 18.9165 90.6701 18.2498 91.0701 17.6098C91.4701 16.9698 91.8567 16.4631 92.2301 16.0898C92.8167 15.4765 93.6167 15.0365 94.6301 14.7698C95.6434 14.5031 96.6834 14.3298 97.7501 14.2498C98.8434 14.1698 99.7767 14.1298 100.55 14.1298H108.47C109.403 14.1298 110.23 14.1031 110.95 14.0498C111.697 13.9698 112.323 13.9298 112.83 13.9298C113.657 13.9298 114.137 14.1298 114.27 14.5298C114.297 14.6365 114.31 14.7431 114.31 14.8498C114.337 14.9298 114.35 15.0365 114.35 15.1698C114.35 15.7031 114.23 16.3165 113.99 17.0098C113.75 17.6765 113.483 18.3298 113.19 18.9698C112.923 19.5831 112.71 20.0898 112.55 20.4898C112.523 20.6231 112.443 20.7165 112.31 20.7698C112.203 20.8231 112.097 20.8498 111.99 20.8498C111.857 20.8498 111.737 20.8231 111.63 20.7698C111.55 20.7165 111.523 20.5431 111.55 20.2498C111.603 19.9298 111.67 19.5698 111.75 19.1698C111.83 18.7698 111.87 18.4231 111.87 18.1298C111.87 17.2765 111.523 16.6231 110.83 16.1698C110.163 15.6898 109.323 15.4498 108.31 15.4498C107.563 15.4498 106.95 15.5165 106.47 15.6498C105.99 15.7565 105.603 16.0365 105.31 16.4898C104.243 18.0631 103.27 19.6765 102.39 21.3298C101.537 22.9831 100.737 24.6765 99.9901 26.4098H110.43C110.51 26.4098 110.457 26.5698 110.27 26.8898C110.11 27.2098 109.897 27.5431 109.63 27.8898C109.39 28.2098 109.177 28.3698 108.99 28.3698H99.1101C98.8167 29.1165 98.4701 30.0231 98.0701 31.0898C97.6701 32.1565 97.2967 33.2098 96.9501 34.2498C96.6301 35.2898 96.3767 36.1831 96.1901 36.9298C96.0301 37.5698 95.9501 38.1431 95.9501 38.6498C95.9501 39.3165 96.1501 39.8231 96.5501 40.1698C96.9767 40.5165 97.7101 40.6898 98.7501 40.6898C100.19 40.6898 101.63 40.6365 103.07 40.5298C104.51 40.3965 105.923 40.1298 107.31 39.7298C108.51 39.3831 109.577 38.9165 110.51 38.3298C111.47 37.7431 112.163 37.0098 112.59 36.1298C112.643 36.0231 112.723 35.9698 112.83 35.9698C113.017 35.9698 113.11 36.1165 113.11 36.4098C113.11 36.4631 113.097 36.5298 113.07 36.6098C113.07 36.6898 113.057 36.7831 113.03 36.8898C112.817 37.5831 112.563 38.1965 112.27 38.7298C111.977 39.2631 111.67 39.7165 111.35 40.0898C110.603 40.9965 109.643 41.5565 108.47 41.7698C107.297 41.9565 106.123 42.0498 104.95 42.0498H92.8301ZM121.603 42.3298C120.749 42.3298 120.136 41.9698 119.763 41.2498C119.469 40.6098 119.323 39.8498 119.323 38.9698C119.323 37.9831 119.469 36.8898 119.763 35.6898C120.056 34.4898 120.456 33.2631 120.963 32.0098C121.149 31.5565 121.389 30.9831 121.683 30.2898C122.003 29.5965 122.376 28.9165 122.803 28.2498C122.429 28.5698 121.989 28.8365 121.483 29.0498C120.976 29.2365 120.483 29.3298 120.003 29.3298C119.629 29.3298 119.323 29.2765 119.083 29.1698C118.869 29.5965 118.523 30.2898 118.043 31.2498C117.563 32.2098 116.923 33.3431 116.123 34.6498C116.043 34.7831 115.963 34.7831 115.883 34.6498C115.829 34.4898 115.803 34.2765 115.803 34.0098C115.803 33.7965 115.829 33.5698 115.883 33.3298C115.936 33.0898 116.016 32.8631 116.123 32.6498C116.389 32.1431 116.656 31.6231 116.923 31.0898C117.189 30.5298 117.429 30.0365 117.643 29.6098C117.856 29.1831 117.976 28.9165 118.003 28.8098C117.523 28.5698 117.163 28.2365 116.923 27.8098C116.683 27.3565 116.563 26.9165 116.563 26.4898C116.563 26.0631 116.656 25.6765 116.843 25.3298C117.056 24.9831 117.363 24.7165 117.763 24.5298C118.003 24.4498 118.229 24.4098 118.443 24.4098C119.029 24.4098 119.509 24.5965 119.883 24.9698C119.856 25.0765 119.829 25.1965 119.803 25.3298C119.803 25.4365 119.803 25.5565 119.803 25.6898C119.803 26.5165 120.136 27.1298 120.803 27.5298C121.469 27.9298 122.189 28.0765 122.963 27.9698C123.336 27.4365 123.763 26.9698 124.243 26.5698C124.723 26.1698 125.243 25.9698 125.803 25.9698C126.096 25.9698 126.509 25.9831 127.043 26.0098C127.603 26.0365 128.003 26.0365 128.243 26.0098C128.083 26.1165 127.896 26.3298 127.683 26.6498C127.469 26.9698 127.269 27.3031 127.083 27.6498C126.896 27.9965 126.749 28.2631 126.643 28.4498C125.923 29.8365 125.256 31.2231 124.643 32.6098C124.029 33.9698 123.563 35.2765 123.243 36.5298C123.189 36.7698 123.136 36.9965 123.083 37.2098C123.056 37.3965 123.043 37.5965 123.043 37.8098C123.043 38.6098 123.309 39.0098 123.843 39.0098C124.216 39.0098 124.749 38.7431 125.443 38.2098C126.056 37.7031 126.603 37.1431 127.083 36.5298C127.616 35.8365 128.123 35.0898 128.603 34.2898C129.083 33.4898 129.496 32.7565 129.843 32.0898C129.976 31.8765 130.069 31.7698 130.123 31.7698C130.283 31.7698 130.363 32.0098 130.363 32.4898C130.363 32.6765 130.336 32.9031 130.283 33.1698C130.229 33.4365 130.136 33.6898 130.003 33.9298C129.603 34.5965 129.149 35.3298 128.643 36.1298C128.136 36.9031 127.616 37.6631 127.083 38.4098C126.736 38.8898 126.243 39.4365 125.603 40.0498C124.989 40.6631 124.323 41.1965 123.603 41.6498C122.909 42.1031 122.243 42.3298 121.603 42.3298ZM137.161 22.8498C136.468 22.6098 136.121 22.1565 136.121 21.4898C136.121 20.8765 136.361 20.2498 136.841 19.6098C137.348 18.9431 137.894 18.5165 138.481 18.3298C138.614 18.2765 138.721 18.2498 138.801 18.2498C138.908 18.2498 139.014 18.2498 139.121 18.2498C139.574 18.2498 139.948 18.3831 140.241 18.6498C140.534 18.9165 140.681 19.2231 140.681 19.5698C140.681 20.0498 140.428 20.4498 139.921 20.7698C139.521 20.7165 139.134 20.8098 138.761 21.0498C138.388 21.2898 138.054 21.5831 137.761 21.9298C137.494 22.2765 137.294 22.5831 137.161 22.8498ZM130.281 42.2898C129.934 42.2898 129.601 42.2098 129.281 42.0498C128.961 41.9165 128.694 41.6365 128.481 41.2098C128.188 40.5698 128.041 39.8098 128.041 38.9298C128.041 37.9698 128.188 36.9031 128.481 35.7298C128.774 34.5298 129.161 33.3031 129.641 32.0498C129.828 31.5965 130.068 31.0365 130.361 30.3698C130.654 29.7031 131.001 29.0365 131.401 28.3698C131.801 27.7031 132.254 27.1565 132.761 26.7298C133.294 26.2765 133.868 26.0498 134.481 26.0498C134.774 26.0498 135.188 26.0631 135.721 26.0898C136.254 26.1165 136.641 26.1165 136.881 26.0898C136.721 26.1965 136.534 26.4098 136.321 26.7298C136.108 27.0498 135.908 27.3831 135.721 27.7298C135.534 28.0498 135.388 28.3031 135.281 28.4898C134.588 29.8765 133.934 31.2498 133.321 32.6098C132.708 33.9698 132.241 35.2765 131.921 36.5298C131.868 36.7431 131.828 36.9565 131.801 37.1698C131.774 37.3831 131.761 37.5831 131.761 37.7698C131.761 38.5431 132.014 38.9298 132.521 38.9298C132.734 38.9298 132.961 38.8765 133.201 38.7698C133.468 38.6365 133.774 38.4365 134.121 38.1698C134.734 37.6898 135.268 37.1431 135.721 36.5298C136.254 35.8365 136.761 35.1031 137.241 34.3298C137.721 33.5298 138.134 32.7965 138.481 32.1298C138.614 31.9165 138.708 31.8098 138.761 31.8098C138.921 31.8098 139.001 32.0365 139.001 32.4898C139.001 32.7031 138.961 32.9565 138.881 33.2498C138.828 33.5165 138.734 33.7698 138.601 34.0098C138.228 34.6498 137.788 35.3565 137.281 36.1298C136.774 36.9031 136.254 37.6498 135.721 38.3698C135.348 38.8765 134.854 39.4365 134.241 40.0498C133.628 40.6631 132.974 41.1965 132.281 41.6498C131.588 42.0765 130.921 42.2898 130.281 42.2898ZM142.273 42.4498C141.02 42.4498 140.006 42.2231 139.233 41.7698C138.46 41.2898 137.9 40.6631 137.553 39.8898C137.233 39.0898 137.073 38.2365 137.073 37.3298C137.073 36.4231 137.206 35.5031 137.473 34.5698C137.74 33.6365 138.1 32.7565 138.553 31.9298C139.486 30.2498 140.633 28.8631 141.993 27.7698C143.38 26.6765 145.073 26.1298 147.073 26.1298C148.326 26.1298 149.3 26.4498 149.993 27.0898C150.686 27.7298 151.033 28.4765 151.033 29.3298C151.033 30.1298 150.793 30.8631 150.313 31.5298C149.86 32.1965 149.246 32.5298 148.473 32.5298C148.046 32.5298 147.673 32.4098 147.353 32.1698C147.033 31.9298 146.873 31.5565 146.873 31.0498C146.873 30.9698 146.873 30.8898 146.873 30.8098C146.9 30.7031 146.926 30.5965 146.953 30.4898C147.113 30.4631 147.34 30.4231 147.633 30.3698C147.953 30.2898 148.206 30.1031 148.393 29.8098C148.74 29.3298 148.913 28.8498 148.913 28.3698C148.913 28.0765 148.82 27.8365 148.633 27.6498C148.473 27.4365 148.193 27.3298 147.793 27.3298C147.073 27.3298 146.34 27.5965 145.593 28.1298C144.846 28.6365 144.14 29.3165 143.473 30.1698C142.833 31.0231 142.273 31.9565 141.793 32.9698C141.046 34.5965 140.673 36.0898 140.673 37.4498C140.673 38.4365 140.9 39.2498 141.353 39.8898C141.806 40.5031 142.526 40.8098 143.513 40.8098C144.766 40.8098 145.94 40.3831 147.033 39.5298C148.153 38.6498 149.153 37.6365 150.033 36.4898C150.62 35.7431 151.14 34.9831 151.593 34.2098C152.073 33.4365 152.473 32.7298 152.793 32.0898C152.9 31.9031 152.993 31.8098 153.073 31.8098C153.233 31.8098 153.313 32.0365 153.313 32.4898C153.313 32.7031 153.273 32.9565 153.193 33.2498C153.14 33.5165 153.046 33.7698 152.913 34.0098C152.46 34.7565 151.993 35.5031 151.513 36.2498C151.06 36.9965 150.566 37.7031 150.033 38.3698C149.126 39.5431 148.06 40.5165 146.833 41.2898C145.606 42.0631 144.086 42.4498 142.273 42.4498ZM148.889 42.0498C149.182 41.5165 149.515 40.8365 149.889 40.0098C150.235 39.1831 150.582 38.2898 150.929 37.3298C151.302 36.3431 151.635 35.3965 151.929 34.4898C152.595 32.4365 153.275 30.4098 153.969 28.4098C154.689 26.4098 155.409 24.6765 156.129 23.2098C156.422 22.5698 156.795 21.7965 157.249 20.8898C157.702 19.9565 158.209 18.9965 158.769 18.0098C159.355 17.0231 159.982 16.1031 160.649 15.2498C161.342 14.3698 162.075 13.6631 162.849 13.1298C163.649 12.5965 164.475 12.3298 165.329 12.3298C166.182 12.3298 166.755 12.5165 167.049 12.8898C167.369 13.2631 167.529 13.7298 167.529 14.2898C167.529 14.9031 167.395 15.5565 167.129 16.2498C166.862 16.9431 166.609 17.5165 166.369 17.9698C165.835 18.9831 165.142 20.1298 164.289 21.4098C163.462 22.6631 162.595 23.8365 161.689 24.9298C161.235 25.4898 160.689 26.1298 160.049 26.8498C159.409 27.5431 158.769 28.2098 158.129 28.8498C157.515 29.4898 156.982 30.0365 156.529 30.4898L155.809 32.4898C156.502 31.5831 157.235 30.7698 158.009 30.0498C158.782 29.3298 159.622 28.6098 160.529 27.8898C161.195 27.3565 161.889 26.9565 162.609 26.6898C163.355 26.4231 164.035 26.2898 164.649 26.2898C165.102 26.2898 165.515 26.3565 165.889 26.4898C166.289 26.6231 166.582 26.8365 166.769 27.1298C166.902 27.3165 166.995 27.5165 167.049 27.7298C167.102 27.9431 167.129 28.1565 167.129 28.3698C167.129 28.7965 167.049 29.2098 166.889 29.6098C166.542 30.4365 166.035 31.1431 165.369 31.7298C164.729 32.2898 163.995 32.7165 163.169 33.0098C162.875 33.1165 162.489 33.2365 162.009 33.3698C161.529 33.5031 161.102 33.5965 160.729 33.6498C160.782 34.0231 160.822 34.3965 160.849 34.7698C160.902 35.1431 160.955 35.5165 161.009 35.8898C161.169 36.7965 161.369 37.5698 161.609 38.2098C161.875 38.8498 162.289 39.1698 162.849 39.1698C163.355 39.1698 164.035 38.8365 164.889 38.1698C165.502 37.6898 166.035 37.1431 166.489 36.5298C167.022 35.8365 167.529 35.1031 168.009 34.3298C168.489 33.5298 168.902 32.7965 169.249 32.1298C169.355 31.9431 169.449 31.8498 169.529 31.8498C169.689 31.8498 169.769 32.0631 169.769 32.4898C169.769 32.7298 169.729 32.9965 169.649 33.2898C169.595 33.5565 169.489 33.8231 169.329 34.0898C168.955 34.7298 168.515 35.4231 168.009 36.1698C167.529 36.9165 167.022 37.6498 166.489 38.3698C166.195 38.7698 165.822 39.2098 165.369 39.6898C164.915 40.1698 164.435 40.6098 163.929 41.0098C163.475 41.3565 162.929 41.6765 162.289 41.9698C161.649 42.2365 161.022 42.3698 160.409 42.3698C159.929 42.3698 159.475 42.2631 159.049 42.0498C158.649 41.8365 158.315 41.4765 158.049 40.9698C157.755 40.4098 157.529 39.7431 157.369 38.9698C157.209 38.1965 157.129 37.4231 157.129 36.6498C157.129 36.2231 157.142 35.8098 157.169 35.4098C157.222 34.9831 157.302 34.5965 157.409 34.2498C157.542 33.7965 157.675 33.4898 157.809 33.3298C157.942 33.1698 158.115 33.0898 158.329 33.0898C159.102 33.0631 159.862 32.9565 160.609 32.7698C161.355 32.5565 161.982 32.2231 162.489 31.7698C163.102 31.2365 163.409 30.6365 163.409 29.9698C163.409 29.6765 163.302 29.4231 163.089 29.2098C162.902 28.9698 162.582 28.8498 162.129 28.8498C161.515 28.8498 160.915 29.0498 160.329 29.4498C159.742 29.8498 159.182 30.3698 158.649 31.0098C158.115 31.6498 157.622 32.3165 157.169 33.0098C156.715 33.6765 156.329 34.2898 156.009 34.8498C155.769 35.2498 155.502 35.7698 155.209 36.4098C154.915 37.0498 154.609 37.7165 154.289 38.4098C153.969 39.1031 153.649 39.7298 153.329 40.2898C153.009 40.8498 152.702 41.2631 152.409 41.5298C152.062 41.8765 151.702 42.0498 151.329 42.0498H148.889ZM157.569 27.7698C158.902 26.2231 160.209 24.5965 161.489 22.8898C162.769 21.1831 163.862 19.4365 164.769 17.6498C164.849 17.5165 164.982 17.2365 165.169 16.8098C165.355 16.3831 165.529 15.9165 165.689 15.4098C165.875 14.9031 165.969 14.4631 165.969 14.0898C165.969 13.6098 165.782 13.3698 165.409 13.3698C165.035 13.3698 164.582 13.6898 164.049 14.3298C163.542 14.9698 162.995 15.8231 162.409 16.8898C161.849 17.9298 161.275 19.0898 160.689 20.3698C160.102 21.6231 159.542 22.9031 159.009 24.2098C158.475 25.4898 157.995 26.6765 157.569 27.7698ZM180.846 42.0498C180.286 42.0498 179.873 41.8498 179.606 41.4498C179.366 41.0498 179.246 40.5031 179.246 39.8098C179.246 39.4098 179.286 38.9698 179.366 38.4898C179.446 38.0098 179.54 37.5031 179.646 36.9698C179.966 35.5565 180.46 33.9965 181.126 32.2898C181.82 30.5565 182.606 28.7831 183.486 26.9698C184.393 25.1298 185.3 23.3431 186.206 21.6098C187.14 19.8765 188.006 18.2898 188.806 16.8498C188.86 16.7431 188.966 16.5431 189.126 16.2498C189.313 15.9565 189.46 15.7431 189.566 15.6098C188.526 15.6365 187.406 15.7698 186.206 16.0098C185.033 16.2231 183.9 16.5298 182.806 16.9298C181.74 17.3298 180.82 17.7965 180.046 18.3298C179.3 18.8631 178.82 19.4498 178.606 20.0898C178.58 20.1698 178.526 20.2098 178.446 20.2098C178.206 20.2098 178.086 20.0231 178.086 19.6498C178.086 19.5698 178.113 19.4498 178.166 19.2898C178.433 18.5965 178.74 17.9831 179.086 17.4498C179.433 16.9165 179.793 16.4631 180.166 16.0898C181.046 15.1831 182.033 14.6365 183.126 14.4498C184.22 14.2365 185.38 14.1298 186.606 14.1298H195.686C195.1 14.5831 194.406 15.4098 193.606 16.6098C192.806 17.7831 191.98 19.1165 191.126 20.6098C190.753 21.2765 190.286 22.1431 189.726 23.2098C189.166 24.2765 188.58 25.4631 187.966 26.7698C187.353 28.0498 186.766 29.3431 186.206 30.6498C185.646 31.9565 185.166 33.1965 184.766 34.3698C184.366 35.5165 184.113 36.5031 184.006 37.3298C183.98 37.4631 183.966 37.5965 183.966 37.7298C183.966 37.8365 183.966 37.9565 183.966 38.0898C183.966 38.8365 184.166 39.4631 184.566 39.9698C184.966 40.4498 185.713 40.6898 186.806 40.6898C188.22 40.6898 189.646 40.6365 191.086 40.5298C192.553 40.3965 193.98 40.1298 195.366 39.7298C196.54 39.3831 197.606 38.9165 198.566 38.3298C199.526 37.7431 200.22 37.0098 200.646 36.1298C200.7 36.0231 200.766 35.9698 200.846 35.9698C201.033 35.9698 201.126 36.1165 201.126 36.4098C201.126 36.4631 201.113 36.5298 201.086 36.6098C201.086 36.6898 201.073 36.7831 201.046 36.8898C200.833 37.5831 200.58 38.1965 200.286 38.7298C199.993 39.2631 199.7 39.7165 199.406 40.0898C198.66 40.9965 197.686 41.5565 196.486 41.7698C195.313 41.9565 194.14 42.0498 192.966 42.0498H180.846ZM211.979 41.4898C210.752 42.1298 209.459 42.4498 208.099 42.4498C206.952 42.4498 205.885 42.1698 204.899 41.6098C203.912 41.0498 203.245 40.1565 202.899 38.9298C202.739 38.3698 202.659 37.7831 202.659 37.1698C202.659 36.1565 202.832 35.1165 203.179 34.0498C203.552 32.9565 204.032 31.9565 204.619 31.0498C205.525 29.6365 206.672 28.4631 208.059 27.5298C209.445 26.5965 210.979 26.1298 212.659 26.1298C213.912 26.1298 214.885 26.4498 215.579 27.0898C216.272 27.7298 216.619 28.4765 216.619 29.3298C216.619 30.3431 216.272 31.2365 215.579 32.0098C214.912 32.7565 214.032 33.3298 212.939 33.7298C212.405 33.9165 211.832 34.0631 211.219 34.1698C210.632 34.2498 210.072 34.2898 209.539 34.2898C208.445 34.2898 207.605 34.1431 207.019 33.8498C206.512 35.1565 206.259 36.3565 206.259 37.4498C206.259 38.4365 206.485 39.2498 206.939 39.8898C207.392 40.5031 208.112 40.8098 209.099 40.8098C209.925 40.8098 210.739 40.5831 211.539 40.1298C212.365 39.6765 213.125 39.1165 213.819 38.4498C214.539 37.7831 215.139 37.1431 215.619 36.5298C215.992 36.0765 216.312 35.6498 216.579 35.2498C216.845 34.8498 217.125 34.3965 217.419 33.8898C217.712 33.3565 218.059 32.7031 218.459 31.9298C218.565 31.7431 218.659 31.6498 218.739 31.6498C218.899 31.6498 218.979 31.8631 218.979 32.2898C218.979 32.5298 218.939 32.7965 218.859 33.0898C218.805 33.3565 218.699 33.6365 218.539 33.9298C218.165 34.5965 217.712 35.3298 217.179 36.1298C216.672 36.9031 216.152 37.6498 215.619 38.3698C215.139 39.0098 214.592 39.5965 213.979 40.1298C213.365 40.6631 212.699 41.1165 211.979 41.4898ZM208.339 32.9698C208.472 33.0498 208.619 33.1031 208.779 33.1298C208.939 33.1565 209.099 33.1698 209.259 33.1698C209.792 33.1698 210.325 33.0498 210.859 32.8098C211.392 32.5431 211.845 32.2765 212.219 32.0098C212.832 31.5831 213.352 31.0765 213.779 30.4898C214.205 29.9031 214.445 29.2365 214.499 28.4898C214.525 28.1698 214.445 27.9031 214.259 27.6898C214.099 27.4498 213.805 27.3298 213.379 27.3298C213.165 27.3298 212.899 27.3698 212.579 27.4498C212.152 27.5565 211.725 27.7565 211.299 28.0498C210.872 28.3431 210.459 28.6898 210.059 29.0898C209.925 29.2231 209.685 29.4898 209.339 29.8898C209.019 30.2631 208.712 30.6898 208.419 31.1698C208.125 31.6231 207.979 32.0231 207.979 32.3698C207.979 32.6631 208.099 32.8631 208.339 32.9698ZM221.555 42.3698C220.328 42.3698 219.261 41.9831 218.355 41.2098C217.475 40.4365 217.035 39.1965 217.035 37.4898C217.035 36.2365 217.261 34.9298 217.715 33.5698C218.168 32.2098 218.808 30.9431 219.635 29.7698C220.488 28.5965 221.515 27.6365 222.715 26.8898C223.915 26.1431 225.261 25.7698 226.755 25.7698C227.981 25.7698 228.928 26.0098 229.595 26.4898C230.288 26.9431 230.781 27.5565 231.075 28.3298C231.368 29.1031 231.515 29.9298 231.515 30.8098C231.515 31.4765 231.435 32.1565 231.275 32.8498C231.141 33.5165 230.941 34.1831 230.675 34.8498C231.128 35.3831 231.701 35.6498 232.395 35.6498C233.141 35.6498 233.835 35.3698 234.475 34.8098C234.848 34.4898 235.181 34.0898 235.475 33.6098C235.795 33.1031 236.075 32.6365 236.315 32.2098C236.395 32.0498 236.488 31.9698 236.595 31.9698C236.728 31.9698 236.795 32.1565 236.795 32.5298C236.795 32.7698 236.755 33.0498 236.675 33.3698C236.621 33.6898 236.488 34.0098 236.275 34.3298C235.875 35.0231 235.461 35.5565 235.035 35.9298C234.608 36.2765 234.128 36.5565 233.595 36.7698C233.195 36.9298 232.768 37.0098 232.315 37.0098C231.488 37.0098 230.741 36.7565 230.075 36.2498C229.861 36.7031 229.595 37.1698 229.275 37.6498C228.501 38.9565 227.501 40.0765 226.275 41.0098C225.048 41.9165 223.475 42.3698 221.555 42.3698ZM223.075 40.8498C223.688 40.8498 224.275 40.6498 224.835 40.2498C225.421 39.8231 225.955 39.3031 226.435 38.6898C226.915 38.0765 227.328 37.4365 227.675 36.7698C228.048 36.1031 228.355 35.5165 228.595 35.0098C227.688 34.2365 227.235 33.2631 227.235 32.0898C227.235 31.3165 227.448 30.7165 227.875 30.2898C228.301 29.8631 228.888 29.6765 229.635 29.7298C229.608 29.1165 229.448 28.6098 229.155 28.2098C228.861 27.8098 228.381 27.6098 227.715 27.6098C227.101 27.6098 226.515 27.7965 225.955 28.1698C225.421 28.5431 224.915 29.0231 224.435 29.6098C223.981 30.1698 223.568 30.7565 223.195 31.3698C222.848 31.9565 222.555 32.4898 222.315 32.9698C221.968 33.6631 221.648 34.5031 221.355 35.4898C221.061 36.4765 220.915 37.3965 220.915 38.2498C220.915 38.9965 221.061 39.6231 221.355 40.1298C221.675 40.6098 222.248 40.8498 223.075 40.8498ZM245.604 42.2898C244.697 42.2898 244.07 42.0231 243.724 41.4898C243.404 40.9298 243.244 40.2898 243.244 39.5698C243.244 38.6898 243.417 37.6365 243.764 36.4098C244.11 35.1565 244.51 33.9031 244.964 32.6498C245.444 31.3698 245.87 30.2365 246.244 29.2498C246.35 29.0098 246.404 28.7565 246.404 28.4898C246.404 28.1965 246.31 27.9831 246.124 27.8498C245.937 27.7165 245.697 27.6498 245.404 27.6498C244.977 27.6498 244.497 27.7831 243.964 28.0498C243.137 28.4765 242.35 29.1565 241.604 30.0898C240.857 31.0231 240.257 31.9965 239.804 33.0098C239.297 34.1565 238.844 35.3031 238.444 36.4498C238.044 37.5965 237.724 38.5298 237.484 39.2498C237.324 39.7031 237.177 40.1698 237.044 40.6498C236.91 41.1298 236.777 41.5965 236.644 42.0498H232.764C232.764 42.0498 232.857 41.7165 233.044 41.0498C233.204 40.3831 233.417 39.7165 233.684 39.0498C234.137 37.8765 234.59 36.7031 235.044 35.5298C235.524 34.3565 235.937 33.3165 236.284 32.4098C236.39 32.1431 236.55 31.6498 236.764 30.9298C237.004 30.1831 237.217 29.4098 237.404 28.6098C237.617 27.8098 237.724 27.1565 237.724 26.6498C237.724 26.3565 237.684 26.1565 237.604 26.0498C237.844 26.0498 238.11 26.0498 238.404 26.0498C238.724 26.0231 239.017 26.0098 239.284 26.0098C239.657 26.0098 240.004 26.0231 240.324 26.0498C240.67 26.0765 240.897 26.1431 241.004 26.2498C241.324 26.4898 241.484 26.8365 241.484 27.2898C241.484 27.6098 241.417 27.9298 241.284 28.2498C241.177 28.5698 241.097 28.8365 241.044 29.0498C241.417 28.7031 241.804 28.3698 242.204 28.0498C242.604 27.7298 243.217 27.3165 244.044 26.8098C244.524 26.5165 245.124 26.2765 245.844 26.0898C246.564 25.9031 247.217 25.8098 247.804 25.8098C249.324 25.8098 250.084 26.5165 250.084 27.9298C250.084 28.1698 250.057 28.4365 250.004 28.7298C249.977 29.0231 249.897 29.3431 249.764 29.6898C249.63 30.1165 249.417 30.7031 249.124 31.4498C248.83 32.1965 248.524 32.9965 248.204 33.8498C247.91 34.6765 247.657 35.4631 247.444 36.2098C247.23 36.9565 247.124 37.5565 247.124 38.0098C247.124 38.6498 247.364 38.9698 247.844 38.9698C248.27 38.9698 248.804 38.7031 249.444 38.1698C250.057 37.6631 250.59 37.1165 251.044 36.5298C251.604 35.8365 252.11 35.1031 252.564 34.3298C253.044 33.5298 253.457 32.7965 253.804 32.1298C253.937 31.9165 254.03 31.8098 254.084 31.8098C254.244 31.8098 254.324 32.0365 254.324 32.4898C254.324 32.7031 254.284 32.9565 254.204 33.2498C254.15 33.5165 254.057 33.7698 253.924 34.0098C253.55 34.6498 253.11 35.3565 252.604 36.1298C252.097 36.9031 251.577 37.6498 251.044 38.3698C250.67 38.8765 250.177 39.4365 249.564 40.0498C248.95 40.6631 248.297 41.1965 247.604 41.6498C246.91 42.0765 246.244 42.2898 245.604 42.2898ZM261.705 41.4898C260.479 42.1298 259.185 42.4498 257.825 42.4498C256.679 42.4498 255.612 42.1698 254.625 41.6098C253.639 41.0498 252.972 40.1565 252.625 38.9298C252.465 38.3698 252.385 37.7831 252.385 37.1698C252.385 36.1565 252.559 35.1165 252.905 34.0498C253.279 32.9565 253.759 31.9565 254.345 31.0498C255.252 29.6365 256.399 28.4631 257.785 27.5298C259.172 26.5965 260.705 26.1298 262.385 26.1298C263.639 26.1298 264.612 26.4498 265.305 27.0898C265.999 27.7298 266.345 28.4765 266.345 29.3298C266.345 30.3431 265.999 31.2365 265.305 32.0098C264.639 32.7565 263.759 33.3298 262.665 33.7298C262.132 33.9165 261.559 34.0631 260.945 34.1698C260.359 34.2498 259.799 34.2898 259.265 34.2898C258.172 34.2898 257.332 34.1431 256.745 33.8498C256.239 35.1565 255.985 36.3565 255.985 37.4498C255.985 38.4365 256.212 39.2498 256.665 39.8898C257.119 40.5031 257.839 40.8098 258.825 40.8098C259.652 40.8098 260.465 40.5831 261.265 40.1298C262.092 39.6765 262.852 39.1165 263.545 38.4498C264.265 37.7831 264.865 37.1431 265.345 36.5298C265.719 36.0765 266.039 35.6498 266.305 35.2498C266.572 34.8498 266.852 34.3965 267.145 33.8898C267.439 33.3565 267.785 32.7031 268.185 31.9298C268.292 31.7431 268.385 31.6498 268.465 31.6498C268.625 31.6498 268.705 31.8631 268.705 32.2898C268.705 32.5298 268.665 32.7965 268.585 33.0898C268.532 33.3565 268.425 33.6365 268.265 33.9298C267.892 34.5965 267.439 35.3298 266.905 36.1298C266.399 36.9031 265.879 37.6498 265.345 38.3698C264.865 39.0098 264.319 39.5965 263.705 40.1298C263.092 40.6631 262.425 41.1165 261.705 41.4898ZM258.065 32.9698C258.199 33.0498 258.345 33.1031 258.505 33.1298C258.665 33.1565 258.825 33.1698 258.985 33.1698C259.519 33.1698 260.052 33.0498 260.585 32.8098C261.119 32.5431 261.572 32.2765 261.945 32.0098C262.559 31.5831 263.079 31.0765 263.505 30.4898C263.932 29.9031 264.172 29.2365 264.225 28.4898C264.252 28.1698 264.172 27.9031 263.985 27.6898C263.825 27.4498 263.532 27.3298 263.105 27.3298C262.892 27.3298 262.625 27.3698 262.305 27.4498C261.879 27.5565 261.452 27.7565 261.025 28.0498C260.599 28.3431 260.185 28.6898 259.785 29.0898C259.652 29.2231 259.412 29.4898 259.065 29.8898C258.745 30.2631 258.439 30.6898 258.145 31.1698C257.852 31.6231 257.705 32.0231 257.705 32.3698C257.705 32.6631 257.825 32.8631 258.065 32.9698ZM270.977 42.8498C270.071 42.8498 269.217 42.7298 268.417 42.4898C267.617 42.2498 266.964 41.8765 266.457 41.3698C265.951 40.8631 265.697 40.2231 265.697 39.4498C265.697 38.8631 265.871 38.2898 266.217 37.7298C266.591 37.1698 267.111 36.8898 267.777 36.8898C268.071 36.8898 268.337 36.9565 268.577 37.0898C268.817 37.2231 268.977 37.3965 269.057 37.6098C269.031 37.6365 268.964 37.7298 268.857 37.8898C268.751 38.0231 268.684 38.1165 268.657 38.1698C268.417 38.6498 268.297 39.0898 268.297 39.4898C268.297 40.0498 268.497 40.5031 268.897 40.8498C269.324 41.1965 269.871 41.3698 270.537 41.3698C271.417 41.3431 272.177 41.0365 272.817 40.4498C273.484 39.8365 273.817 39.1165 273.817 38.2898C273.817 37.8098 273.711 37.3565 273.497 36.9298C273.151 36.2098 272.684 35.5965 272.097 35.0898C271.537 34.5565 270.991 34.0231 270.457 33.4898C269.951 32.9565 269.577 32.3165 269.337 31.5698C269.231 31.2231 269.177 30.7965 269.177 30.2898C269.177 29.7831 269.244 29.2898 269.377 28.8098C269.511 28.3031 269.711 27.8765 269.977 27.5298C270.351 27.0231 270.911 26.5565 271.657 26.1298C272.591 25.6231 273.684 25.3698 274.937 25.3698C275.764 25.3698 276.497 25.4765 277.137 25.6898C277.617 25.8498 278.031 26.1165 278.377 26.4898C278.751 26.8365 278.937 27.3031 278.937 27.8898C278.937 28.5565 278.724 29.1965 278.297 29.8098C277.897 30.3965 277.311 30.7565 276.537 30.8898C276.057 30.9431 275.631 30.8631 275.257 30.6498C274.884 30.4098 274.751 29.9698 274.857 29.3298C275.577 29.1698 276.097 28.8765 276.417 28.4498C276.577 28.2098 276.657 27.9698 276.657 27.7298C276.657 27.2765 276.471 26.9698 276.097 26.8098C275.751 26.6231 275.417 26.5298 275.097 26.5298C274.697 26.5298 274.311 26.5831 273.937 26.6898C273.591 26.7698 273.271 26.9165 272.977 27.1298C272.391 27.6365 272.097 28.2231 272.097 28.8898C272.097 28.9965 272.111 29.1165 272.137 29.2498C272.191 29.3831 272.231 29.5165 272.257 29.6498C272.391 29.9965 272.591 30.3165 272.857 30.6098C273.124 30.9031 273.391 31.1565 273.657 31.3698C274.324 31.8498 275.004 32.3698 275.697 32.9298C276.417 33.4898 276.951 34.1698 277.297 34.9698C277.564 35.5298 277.697 36.1031 277.697 36.6898C277.697 37.4898 277.497 38.2231 277.097 38.8898C276.697 39.5298 276.244 40.0365 275.737 40.4098C276.617 40.0365 277.471 39.3831 278.297 38.4498C279.151 37.4898 279.884 36.5431 280.497 35.6098C280.897 34.9965 281.257 34.4231 281.577 33.8898C281.924 33.3298 282.271 32.7165 282.617 32.0498C282.724 31.8631 282.817 31.7698 282.897 31.7698C283.057 31.7698 283.137 31.9965 283.137 32.4498C283.137 32.6365 283.097 32.8631 283.017 33.1298C282.964 33.3965 282.871 33.6631 282.737 33.9298C282.257 34.7298 281.804 35.4765 281.377 36.1698C280.951 36.8365 280.431 37.5698 279.817 38.3698C278.591 39.9965 277.284 41.1565 275.897 41.8498C274.511 42.5165 272.871 42.8498 270.977 42.8498ZM292.527 42.0498C292.847 40.7165 293.273 39.2365 293.807 37.6098C294.367 35.9565 294.993 34.2365 295.687 32.4498C296.407 30.6631 297.14 28.8898 297.887 27.1298C298.633 25.3698 299.353 23.6898 300.047 22.0898C300.74 20.4631 301.54 18.8231 302.447 17.1698C302.633 16.8498 302.793 16.5565 302.927 16.2898C303.087 16.0231 303.26 15.7965 303.447 15.6098C302.407 15.6365 301.287 15.7698 300.087 16.0098C298.913 16.2231 297.78 16.5298 296.687 16.9298C295.62 17.3298 294.7 17.7965 293.927 18.3298C293.18 18.8631 292.7 19.4498 292.487 20.0898C292.46 20.1698 292.407 20.2098 292.327 20.2098C292.087 20.2098 291.967 20.0231 291.967 19.6498C291.967 19.5698 291.993 19.4498 292.047 19.2898C292.287 18.5965 292.58 17.9831 292.927 17.4498C293.3 16.9165 293.673 16.4631 294.047 16.0898C294.927 15.1831 295.913 14.6365 297.007 14.4498C298.1 14.2365 299.26 14.1298 300.487 14.1298H310.207C311.327 14.1298 312.327 14.2498 313.207 14.4898C314.087 14.7031 314.82 15.0098 315.407 15.4098C316.18 15.9165 316.74 16.5431 317.087 17.2898C317.433 18.0098 317.607 18.7698 317.607 19.5698C317.607 20.7965 317.34 21.8898 316.807 22.8498C316.273 23.8098 315.567 24.6365 314.687 25.3298C313.833 26.0231 312.873 26.5831 311.807 27.0098C310.74 27.4365 309.66 27.7565 308.567 27.9698L307.287 28.2098C307.927 30.3698 308.74 32.3165 309.727 34.0498C310.713 35.7831 311.74 37.3031 312.807 38.6098C313.873 39.9165 314.833 41.0365 315.687 41.9698C315.287 42.0498 314.673 42.0898 313.847 42.0898C313.127 42.0898 312.433 42.0765 311.767 42.0498C311.1 41.9965 310.767 41.9698 310.767 41.9698C310.1 41.9698 309.447 41.6098 308.807 40.8898C308.167 40.1698 307.553 39.2498 306.967 38.1298C306.38 36.9831 305.847 35.7965 305.367 34.5698C304.913 33.3165 304.527 32.1565 304.207 31.0898C303.913 30.0231 303.713 29.1965 303.607 28.6098C303.607 28.5298 303.593 28.4498 303.567 28.3698C303.567 28.2898 303.567 28.1965 303.567 28.0898C303.567 27.9298 303.593 27.7965 303.647 27.6898C303.727 27.5565 303.873 27.4765 304.087 27.4498C305.42 27.2898 306.633 27.0498 307.727 26.7298C308.82 26.3831 309.82 25.9165 310.727 25.3298C311.633 24.7165 312.367 23.9698 312.927 23.0898C313.487 22.1831 313.767 21.1165 313.767 19.8898C313.767 18.9031 313.487 18.0098 312.927 17.2098C312.393 16.3831 311.527 15.8365 310.327 15.5698C310.007 15.4898 309.66 15.4365 309.287 15.4098C308.94 15.3831 308.58 15.3565 308.207 15.3298C307.62 16.1298 307.007 17.0898 306.367 18.2098C305.727 19.3298 305.1 20.5165 304.487 21.7698C303.873 22.9965 303.287 24.2231 302.727 25.4498C302.193 26.6498 301.713 27.7565 301.287 28.7698C301.073 29.3298 300.753 30.1431 300.327 31.2098C299.927 32.2765 299.513 33.4365 299.087 34.6898C298.66 35.9431 298.287 37.1565 297.967 38.3298C297.673 39.4765 297.527 40.4231 297.527 41.1698C297.527 41.5698 297.58 41.8631 297.687 42.0498H292.527Z" fill="black"/>
</svg>
